<svg width="120" height="24" viewBox="0 0 120 24" fill="none" xmlns="http://www.w3.org/2000/svg">
<g>
<path d="M16.9393 18.4968V17.5796L18.8497 17.2229C18.8667 16.5775 18.8752 15.8811 18.8752 15.1338C18.8922 14.3694 18.9007 13.707 18.9007 13.1465V11.949C18.9007 11.2527 18.8922 10.6752 18.8752 10.2166C18.8752 9.74098 18.8582 9.24841 18.8243 8.73885L16.7865 8.50955V7.61783L20.7092 6.06369L21.0913 6.31847L21.0149 9.78344V13.1465C21.0149 13.707 21.0149 14.3694 21.0149 15.1338C21.0319 15.8811 21.0488 16.5775 21.0658 17.2229L22.8489 17.5796V18.4968H16.9393ZM19.945 3.26115C19.4696 3.26115 19.062 3.10828 18.7224 2.80255C18.3997 2.49682 18.2384 2.10616 18.2384 1.63057C18.2384 1.138 18.3997 0.747346 18.7224 0.458599C19.062 0.152866 19.4696 4.97663e-10 19.945 4.97663e-10C20.4205 4.97663e-10 20.8196 0.152866 21.1422 0.458599C21.4819 0.747346 21.6517 1.138 21.6517 1.63057C21.6517 2.10616 21.4819 2.49682 21.1422 2.80255C20.8196 3.10828 20.4205 3.26115 19.945 3.26115Z" fill="#06503C"/>
<path d="M28.347 18.828C27.464 18.828 26.7593 18.5902 26.2329 18.1146C25.7064 17.6391 25.4432 16.9087 25.4432 15.9236C25.4432 15.6008 25.4432 15.2866 25.4432 14.9809C25.4602 14.6582 25.4687 14.2505 25.4687 13.758V7.74522H23.3545V6.6242L25.6215 6.34395L26.2838 2.92994H27.8121L27.6593 6.3949H31.098V7.74522H27.6338V15.6433C27.6338 16.2887 27.7612 16.7643 28.0159 17.0701C28.2706 17.3588 28.6103 17.5032 29.0348 17.5032C29.3235 17.5032 29.5952 17.4437 29.8499 17.3248C30.1216 17.2059 30.4188 17.0361 30.7414 16.8153L31.3528 17.4777C30.6565 18.3779 29.6546 18.828 28.347 18.828Z" fill="#06503C"/>
<path d="M39.9163 17.6051C40.7994 17.6051 41.555 17.3928 42.1834 16.9682C42.8286 16.5265 43.3466 15.949 43.7371 15.2357C44.1447 14.5053 44.4419 13.69 44.6287 12.7898C44.8155 11.8726 44.9089 10.9299 44.9089 9.96178C44.9089 9.01062 44.8155 8.08493 44.6287 7.18471C44.4419 6.26752 44.1447 5.44374 43.7371 4.71338C43.3466 3.98301 42.8286 3.40552 42.1834 2.98089C41.555 2.55626 40.7994 2.34395 39.9163 2.34395C39.0333 2.34395 38.2691 2.55626 37.6239 2.98089C36.9955 3.40552 36.4776 3.98301 36.0701 4.71338C35.6625 5.44374 35.3568 6.26752 35.1531 7.18471C34.9663 8.08493 34.8729 9.01062 34.8729 9.96178C34.8729 10.9299 34.9663 11.8726 35.1531 12.7898C35.3568 13.69 35.6625 14.5053 36.0701 15.2357C36.4776 15.949 36.9955 16.5265 37.6239 16.9682C38.2691 17.3928 39.0333 17.6051 39.9163 17.6051ZM43.6353 24C42.5654 24 41.6484 23.7537 40.8843 23.2611C40.1371 22.7686 39.5682 22.1231 39.1777 21.3248C38.7871 20.5265 38.5918 19.6688 38.5918 18.7516C37.4371 18.5478 36.3672 18.0807 35.3823 17.3503C34.3974 16.62 33.5993 15.6433 32.9879 14.4204C32.3936 13.1805 32.0964 11.6943 32.0964 9.96178C32.0964 8.569 32.3172 7.32059 32.7587 6.21656C33.2002 5.11253 33.7861 4.17834 34.5163 3.41401C35.2634 2.64968 36.104 2.07219 37.038 1.68153C37.972 1.27389 38.9314 1.07006 39.9163 1.07006C40.9013 1.07006 41.8522 1.26539 42.7692 1.65605C43.7032 2.02972 44.5353 2.59023 45.2655 3.33758C46.0127 4.08493 46.607 5.01062 47.0485 6.11465C47.49 7.21868 47.7108 8.50106 47.7108 9.96178C47.7108 11.6603 47.3966 13.138 46.7683 14.3949C46.14 15.6518 45.3164 16.6539 44.2975 17.4013C43.2786 18.1486 42.1749 18.6157 40.9862 18.8025C41.0201 20.0085 41.3513 20.9342 41.9796 21.5796C42.6079 22.242 43.4485 22.5733 44.5013 22.5733C44.756 22.5733 45.0447 22.5478 45.3674 22.4968C45.707 22.4628 46.0806 22.3864 46.4881 22.2675L46.7683 23.1847C46.3438 23.4565 45.8428 23.6603 45.2655 23.7962C44.7051 23.9321 44.1617 24 43.6353 24Z" fill="#06503C"/>
<path d="M54.0796 18.828C53.0437 18.828 52.2286 18.4883 51.6343 17.8089C51.0399 17.1125 50.7513 15.9236 50.7682 14.242L50.8447 7.89809L49.0361 7.51592V6.59873L52.7805 6.24204L53.0352 6.49682L52.9079 10.0637V14.0127C52.9079 15.1168 53.0777 15.8981 53.4173 16.3567C53.757 16.7983 54.2664 17.0191 54.9457 17.0191C56.1344 17.0191 57.3231 16.4671 58.5117 15.3631L58.5882 7.87261L56.7796 7.51592V6.59873L60.4731 6.24204L60.7278 6.49682L60.6514 10.0637V17.2229L62.3835 17.5796V18.4968L58.8429 18.7006L58.5882 16.4331C57.9089 17.2654 57.1787 17.8769 56.3976 18.2675C55.6334 18.6412 54.8608 18.828 54.0796 18.828Z" fill="#06503C"/>
<path d="M69.3435 7.23567C68.8681 7.23567 68.3841 7.37155 67.8916 7.64331C67.4162 7.91507 67.0001 8.3482 66.6435 8.94267C66.3039 9.53716 66.0831 10.327 65.9812 11.3121H70.6171C71.2285 11.3121 71.6275 11.1847 71.8143 10.9299C72.0181 10.6752 72.12 10.3609 72.12 9.98726C72.12 9.49469 71.9926 9.04459 71.7379 8.63694C71.5002 8.21231 71.169 7.87261 70.7445 7.61783C70.337 7.36306 69.87 7.23567 69.3435 7.23567ZM69.3181 18.828C67.603 18.828 66.2275 18.276 65.1916 17.172C64.1557 16.051 63.6378 14.5138 63.6378 12.5605C63.6378 11.2527 63.901 10.1147 64.4274 9.1465C64.9708 8.17834 65.6841 7.42251 66.5671 6.87898C67.4671 6.33546 68.4435 6.06369 69.4964 6.06369C70.3794 6.06369 71.1775 6.25902 71.8908 6.64968C72.604 7.04034 73.1728 7.60085 73.5974 8.33121C74.0219 9.04459 74.2342 9.91932 74.2342 10.9554C74.2342 11.2442 74.2172 11.5159 74.1832 11.7707C74.1493 12.0085 74.1068 12.2123 74.0559 12.3822H65.9303C65.9642 13.9448 66.3548 15.1338 67.102 15.949C67.8492 16.7643 68.8341 17.172 70.0568 17.172C70.8719 17.172 71.5511 17.0106 72.0945 16.6879C72.6379 16.3482 73.1389 15.9151 73.5974 15.3885L74.2087 15.8726C73.7332 16.7728 73.0879 17.4947 72.2728 18.0382C71.4577 18.5648 70.4728 18.828 69.3181 18.828Z" fill="#06503C"/>
<path d="M81.8189 7.23567C81.3434 7.23567 80.8594 7.37155 80.367 7.64331C79.8915 7.91507 79.4755 8.3482 79.1188 8.94267C78.7792 9.53716 78.5585 10.327 78.4566 11.3121H83.0925C83.7038 11.3121 84.1029 11.1847 84.2897 10.9299C84.4935 10.6752 84.5953 10.3609 84.5953 9.98726C84.5953 9.49469 84.468 9.04459 84.2133 8.63694C83.9755 8.21231 83.6444 7.87261 83.2198 7.61783C82.8123 7.36306 82.3453 7.23567 81.8189 7.23567ZM81.7934 18.828C80.0783 18.828 78.7028 18.276 77.6669 17.172C76.6311 16.051 76.1131 14.5138 76.1131 12.5605C76.1131 11.2527 76.3763 10.1147 76.9028 9.1465C77.4462 8.17834 78.1594 7.42251 79.0424 6.87898C79.9424 6.33546 80.9189 6.06369 81.9717 6.06369C82.8547 6.06369 83.6529 6.25902 84.3661 6.64968C85.0793 7.04034 85.6482 7.60085 86.0727 8.33121C86.4973 9.04459 86.7095 9.91932 86.7095 10.9554C86.7095 11.2442 86.6926 11.5159 86.6586 11.7707C86.6246 12.0085 86.5822 12.2123 86.5312 12.3822H78.4056C78.4396 13.9448 78.8302 15.1338 79.5773 15.949C80.3245 16.7643 81.3094 17.172 82.5321 17.172C83.3472 17.172 84.0265 17.0106 84.5699 16.6879C85.1133 16.3482 85.6142 15.9151 86.0727 15.3885L86.6841 15.8726C86.2086 16.7728 85.5633 17.4947 84.7482 18.0382C83.9331 18.5648 82.9481 18.828 81.7934 18.828Z" fill="#06503C"/>
<path d="M88.4611 18.786V17.8688L90.3461 17.5121C90.363 16.8667 90.3715 16.1703 90.3715 15.423C90.3885 14.6756 90.397 14.0132 90.397 13.4357V12.2128C90.397 11.5164 90.3885 10.9389 90.3715 10.4803C90.3715 10.0217 90.3545 9.53761 90.3206 9.02806L88.3083 8.79876V7.90704L91.8744 6.3529L92.2565 6.60768L92.4602 8.64589C93.0885 7.96649 93.8103 7.41447 94.6254 6.98984C95.4405 6.56521 96.2386 6.3529 97.0197 6.3529C98.1235 6.3529 98.9386 6.72657 99.4651 7.47392C100.008 8.20428 100.28 9.40173 100.28 11.0663V13.4357C100.28 14.0132 100.28 14.6756 100.28 15.423C100.297 16.1703 100.314 16.8667 100.331 17.5121L102.114 17.8688V18.786H96.2046V17.8688L98.0896 17.5121C98.1065 16.8837 98.115 16.1958 98.115 15.4484C98.132 14.6841 98.1405 14.0132 98.1405 13.4357V11.2701C98.1405 10.0981 97.9707 9.29133 97.6311 8.84972C97.3084 8.4081 96.7735 8.18729 96.0263 8.18729C95.449 8.18729 94.8886 8.30619 94.3452 8.54398C93.8018 8.78177 93.2074 9.17243 92.5621 9.71596V13.4357C92.5621 13.9962 92.5621 14.6586 92.5621 15.423C92.5791 16.1703 92.5961 16.8667 92.6131 17.5121L94.3706 17.8688V18.786H88.4611Z" fill="#06503C"/>
<path d="M107.475 18.828C106.761 18.828 106.108 18.7431 105.513 18.5732C104.919 18.4204 104.308 18.1826 103.679 17.8599L103.577 15.0573H104.978L105.462 17.2739C106.057 17.5456 106.744 17.6815 107.526 17.6815C108.494 17.6815 109.207 17.5032 109.665 17.1465C110.141 16.7898 110.378 16.3227 110.378 15.7452C110.378 15.2017 110.183 14.7686 109.793 14.4459C109.402 14.1062 108.808 13.8004 108.01 13.5287L106.838 13.0955C105.904 12.7558 105.157 12.3142 104.596 11.7707C104.036 11.2272 103.756 10.5223 103.756 9.65605C103.756 9.0276 103.926 8.44161 104.265 7.89809C104.605 7.35456 105.106 6.91295 105.768 6.57325C106.43 6.23355 107.237 6.06369 108.188 6.06369C108.884 6.06369 109.512 6.15711 110.073 6.34395C110.65 6.5138 111.211 6.76858 111.754 7.10828L111.652 9.70701H110.328L109.92 7.66879C109.343 7.38004 108.757 7.23567 108.162 7.23567C107.381 7.23567 106.787 7.39703 106.379 7.71975C105.989 8.02548 105.793 8.44161 105.793 8.96815C105.793 9.52866 105.963 9.95329 106.303 10.242C106.66 10.5308 107.271 10.8365 108.137 11.1592L108.927 11.4395C110.2 11.9151 111.1 12.4586 111.627 13.0701C112.17 13.6815 112.442 14.3864 112.442 15.1847C112.442 15.8301 112.255 16.4331 111.881 16.9936C111.508 17.5372 110.956 17.9788 110.226 18.3185C109.495 18.6582 108.578 18.828 107.475 18.828Z" fill="#06503C"/>
<path d="M120 15.9063C120 17.4893 118.717 18.7726 117.134 18.7726C115.552 18.7726 114.269 17.4893 114.269 15.9063C114.269 14.3233 115.552 13.0401 117.134 13.0401C118.717 13.0401 120 14.3233 120 15.9063Z" fill="#06503C"/>
<path d="M1.38091 0.0110936C2.79404 -0.00968207 4.23916 0.00511284 5.65427 0.00502394L7.80612 0.00505987C9.11746 0.00520173 10.2737 -0.0283733 11.5211 0.429811C13.2492 1.0646 14.3215 2.44163 14.2671 4.33656C14.2202 5.97302 13.3883 7.1432 11.9368 7.82647C11.4594 8.05119 10.936 8.16239 10.473 8.38136C11.8418 8.57925 13.2177 8.95445 14.1301 10.0959C15.0294 11.2208 15.1506 12.5841 14.9875 13.9762C14.7876 15.6817 13.9239 17.3225 12.5958 18.3941C13.5126 18.3247 14.7628 17.9757 15.5787 17.5275C15.8338 17.3874 16.2524 16.9955 16.4519 16.9147L16.4607 16.9112C16.0333 17.8279 15.2243 18.8316 14.4403 19.4512C13.7271 20.0149 13.0471 20.3257 12.1613 20.4577C10.2402 20.7441 8.68344 19.6298 6.84864 19.2201C4.88636 18.7821 3.0513 18.964 1.12258 19.4843C0.851327 19.5575 0.231679 19.6792 0 19.7815C0.120257 19.5869 0.458952 19.2245 0.623579 19.0561C1.33094 18.3332 2.17723 17.7063 3.11022 17.317C3.02948 17.2164 2.93905 17.0387 2.87407 16.9203C2.00307 15.2904 1.90966 12.918 2.41792 11.1558C2.46627 10.9882 2.52416 10.7252 2.63894 10.5977C2.7333 10.5458 3.50412 10.5732 3.65647 10.5736C4.35381 10.5766 5.05117 10.5735 5.74846 10.5643C5.61944 11.0292 5.56809 11.4929 5.5103 11.9668C5.34009 13.3625 5.40989 14.7767 5.7035 16.1502C5.7382 16.3125 5.84069 16.8058 5.91149 16.9386C5.99435 17.0107 7.00461 17.1457 7.20811 17.1923C7.8974 17.3555 8.57972 17.5477 9.25331 17.7684C9.67217 17.9046 10.0784 18.0572 10.5027 18.1766C11.0098 17.2879 11.3621 15.6429 11.4186 14.6123C11.4742 13.5966 11.4982 11.8572 11.1739 10.904C11.0162 10.4466 10.7649 10.0284 10.4365 9.67683C9.6403 8.82773 8.50011 8.65515 7.40816 8.62731C7.39032 8.04139 7.3925 8.10739 7.95039 8.00896C8.60449 7.89356 9.26568 7.56978 9.73957 7.09824C10.4768 6.36478 10.7135 5.18771 10.7182 4.17074C10.7229 3.17767 10.527 1.97102 9.79618 1.25138C8.96133 0.374183 7.29535 0.272418 6.41222 1.1288C5.91564 1.61032 5.9226 2.24201 5.92283 2.8796L5.92709 8.63251L2.37616 8.63071L2.36391 3.31556L2.36473 1.93667C2.36506 1.62466 2.40313 1.25042 2.32392 0.946804C2.17687 0.383062 1.45865 0.304419 1.38408 0.0244661C1.38291 0.0200402 1.38197 0.0155517 1.38091 0.0110936Z" fill="#06503C"/>
</g>
</svg>
